<svg width="43" height="38" viewBox="0 0 43 38" fill="none" xmlns="http://www.w3.org/2000/svg">
<path fill-rule="evenodd" clip-rule="evenodd" d="M28.7097 12.5154C26.8165 11.3462 24.7788 9.67783 23.3589 7.33946C19.8882 1.65118 18.6392 -0.476996 15.2605 0.0878906C11.8818 0.652777 14.9582 9.16549 16.1151 11.9505C16.1677 12.0819 16.2465 12.2264 16.3517 12.384L5.65027 12.6336C2.81057 12.6993 0.523037 14.7224 0.378423 17.2578C0.299542 18.7686 0.864852 19.8852 1.87715 20.6997C0.838559 21.2646 0.128634 22.2498 0.0629007 23.4059C0.0497539 23.6424 0.0366072 23.8131 0.0366072 23.892C-0.0817135 25.7048 0.812265 27.0185 2.35043 27.925C0.799118 28.7657 -0.108007 29.9875 0.0103137 31.7084C0.168075 34.257 2.4819 36.2538 5.3216 36.3195C10.7906 36.4246 21.9259 36.4246 28.6965 36.4114V12.5154H28.7097Z" fill="#D7DADD"/>
<path fill-rule="evenodd" clip-rule="evenodd" d="M30.5508 11.0693H42.9349V37.7635H30.5508V11.0693Z" fill="#D7DADD"/>
</svg>
